<svg id="Layer_1" data-name="Layer 1" xmlns="http://www.w3.org/2000/svg" viewBox="0 0 381.98 86.73"  width="180"  ><defs><style>.cls-1{fill:#c6c6c6;}.cls-2{fill:#fff;}.cls-3{fill:#db633b;}.cls-4{fill:#58bad2;}.cls-5{fill:#e5963f;}</style></defs><path class="cls-1" d="M120.23,20.23V61.86H109.08V20.23Z"/><path class="cls-1" d="M156.3,60.8c-1.57.77-5.5,1.71-10.48,1.71-15.58,0-22.43-9.7-22.43-20.78,0-14.69,10.77-22.15,23.18-22.15,4.79,0,8.68.9,10.41,1.86l-2.18,8.77a19.66,19.66,0,0,0-7.7-1.5c-6.41,0-11.95,3.78-11.95,12.31,0,7.55,4.5,12.24,12.15,12.24a23.34,23.34,0,0,0,7.46-1.19Z"/><path class="cls-2" d="M160.28,50.77a25.58,25.58,0,0,0,10.8,2.58c3.81,0,5.7-1.33,5.7-3.42s-1.87-3.17-6.58-4.78c-7-2.48-11.69-6.36-11.69-12.55,0-7.37,6.21-13,16.72-13a27.29,27.29,0,0,1,11.26,2.13l-2.33,8.91a22.11,22.11,0,0,0-9-2c-3.4,0-5.27,1.25-5.27,3.07,0,2.12,2.21,3,7.46,4.93,7.51,2.74,10.86,6.76,10.86,12.55,0,7.2-5.59,13.31-17.75,13.31A29.82,29.82,0,0,1,158.17,60Z"/><path class="cls-2" d="M199,31.47l3.65,13.65c.43,1.69.95,3.91,1.32,5.41h.22c.37-1.58.77-3.8,1.1-5.38l2.78-13.68H220l-6.5,19.3c-4.54,12.76-7.54,17.36-10.82,20.29a17.84,17.84,0,0,1-10.09,4.42l-2.3-9.39a14.38,14.38,0,0,0,3.8-1.14,9.32,9.32,0,0,0,3.58-2.78,2.39,2.39,0,0,0,.57-1.37,3.72,3.72,0,0,0-.43-1.62l-11.1-27.71Z"/><path class="cls-2" d="M220.71,41.82c0-4-.13-7.54-.25-10.35h9.6l.5,3.88h.21a11,11,0,0,1,9.12-4.56c7.07,0,10.94,4.84,10.94,13.14V61.86H239.68V45.31c0-3.49-1.2-5.56-3.86-5.56a3.89,3.89,0,0,0-3.66,2.67,6.25,6.25,0,0,0-.31,2.24v17.2H220.71Z"/><path class="cls-2" d="M264,50.57c.35,2.41,3.86,3.76,7.78,3.76a27.14,27.14,0,0,0,8.34-1.18l1.41,7.45a31,31,0,0,1-11.38,1.91c-10.71,0-16.74-5.9-16.74-15.52,0-7.09,4.55-16.2,15.75-16.2,9.82,0,14,7.21,14,15.55a20.4,20.4,0,0,1-.4,4.23ZM272.92,43c0-1.76-.82-5-4.31-5-3.29,0-4.57,3-4.76,5Z"/><path class="cls-2" d="M285.44,41.73c0-4.84-.08-7.73-.25-10.26h9.51l.4,5.48h.25a8.74,8.74,0,0,1,8.09-6.16,9,9,0,0,1,2.23.19V41.43a13,13,0,0,0-2.85-.31c-3.29,0-5.49,1.38-6.08,3.83a9.76,9.76,0,0,0-.15,1.9v15H285.44Z"/><path class="cls-2" d="M337.32,31.47c-.14,1.89-.26,4.5-.26,9.38V57.44c0,5.33-1.07,10.35-4.74,13.56-3.48,3-8.11,3.77-12.85,3.77a26.36,26.36,0,0,1-11.26-2.25l2.09-8.4a19.62,19.62,0,0,0,8.74,2.2c4,0,7.07-2.14,7.07-6.87V58.11H326a9.35,9.35,0,0,1-7.58,3.41c-7.46,0-12.81-5.94-12.81-14.76,0-9.59,6.15-16,13.79-16,3.71,0,6.21,1.44,7.83,3.92h.13l.35-3.24ZM325.93,44a7.15,7.15,0,0,0-.14-1.43c-.5-2.2-1.93-3.46-3.94-3.46-2.66,0-5,2.58-5,7.42,0,3.93,1.89,6.85,5,6.85a3.92,3.92,0,0,0,3.87-3,10.24,10.24,0,0,0,.21-2.31Z"/><path class="cls-2" d="M350.37,31.47,354,45.12c.43,1.69,1,3.91,1.33,5.41h.22c.37-1.58.77-3.8,1.09-5.38l2.78-13.68h11.88l-6.5,19.3c-4.54,12.76-7.54,17.36-10.83,20.29a17.82,17.82,0,0,1-10.08,4.42l-2.3-9.39A14.49,14.49,0,0,0,345.4,65,9.32,9.32,0,0,0,349,62.17a2.39,2.39,0,0,0,.57-1.37,3.88,3.88,0,0,0-.43-1.62L338,31.47Z"/><path class="cls-2" d="M374.66,33.73a5.63,5.63,0,0,1,.92-.06,1.6,1.6,0,0,1,1,.24.77.77,0,0,1,.29.65.8.8,0,0,1-.55.75v0a.78.78,0,0,1,.42.57,7.48,7.48,0,0,0,.24.87h-.71a3.56,3.56,0,0,1-.21-.71c-.09-.39-.22-.49-.5-.5h-.21v1.21h-.69Zm.69,1.33h.27c.35,0,.56-.18.56-.45s-.2-.42-.52-.42a1.76,1.76,0,0,0-.31,0Z"/><path class="cls-2" d="M375.71,31.64a3.73,3.73,0,1,0,3.73,3.72A3.72,3.72,0,0,0,375.71,31.64Zm0,6.57a2.85,2.85,0,1,1,2.85-2.85A2.85,2.85,0,0,1,375.71,38.21Z"/><path class="cls-3" d="M51.39,15.13A28.56,28.56,0,0,1,73.27,53.08l13.08,7.56A43.49,43.49,0,0,0,51.39,0Z"/><path class="cls-4" d="M19.76,53.24A28.56,28.56,0,0,1,41.81,15.09V0A43.5,43.5,0,0,0,6.69,60.78Z"/><path class="cls-5" d="M68.49,61.4a28.52,28.52,0,0,1-43.9.12L11.5,69.07A43.49,43.49,0,0,0,81.57,69Z"/></svg>